<svg width="150" height="30" viewBox="0 0 150 30" fill="none" xmlns="http://www.w3.org/2000/svg">
<g clip-path="url(#clip0_396_5433)">
<path d="M0 21.7643C0 17.2444 3.71586 13.7042 8.56712 13.7042C10.3722 13.6883 12.1393 14.2139 13.6328 15.2108C13.8462 15.3565 14.0216 15.5497 14.1446 15.7747C14.2677 15.9997 14.3348 16.2501 14.3406 16.5055C14.3464 16.7608 14.2907 17.014 14.178 17.2441C14.0654 17.4743 13.8989 17.675 13.6923 17.8299V17.8299C13.4014 18.0493 13.0459 18.1699 12.6793 18.1734C12.3127 18.1769 11.9549 18.0632 11.6597 17.8494C10.7542 17.2141 9.66757 16.8766 8.55521 16.8853C5.75244 16.8853 3.47766 18.9072 3.47766 21.7565C3.47766 24.6058 5.75244 26.6316 8.55521 26.6316C9.69823 26.6438 10.8138 26.2873 11.7312 25.6168C12.0232 25.4014 12.3784 25.285 12.7435 25.285C13.1086 25.285 13.4638 25.4014 13.7558 25.6168C13.9641 25.7688 14.1331 25.967 14.249 26.1952C14.3649 26.4234 14.4245 26.6752 14.423 26.9303C14.4214 27.1853 14.3588 27.4364 14.2401 27.6633C14.1214 27.8901 13.9501 28.0863 13.7399 28.2358C12.2251 29.2682 10.4221 29.8136 8.57903 29.7971C3.71586 29.7971 0 26.2842 0 21.7643Z" fill="white"/>
<path d="M28.6232 14.7931L35.6381 27.338C35.7794 27.5911 35.8513 27.876 35.8466 28.1646C35.8419 28.4533 35.7609 28.7358 35.6115 28.9843C35.462 29.2328 35.2494 29.4388 34.9944 29.582C34.7394 29.7252 34.4509 29.8006 34.1573 29.8009H33.9866C33.6807 29.8014 33.3805 29.7198 33.1182 29.5651C32.8559 29.4103 32.6414 29.1883 32.4979 28.9227L31.4855 27.0648C31.3998 26.9083 31.2726 26.7774 31.1175 26.686C30.9624 26.5947 30.785 26.5462 30.6042 26.5457H23.5139C23.376 26.5446 23.2405 26.5804 23.1216 26.6491C23.0028 26.7178 22.9051 26.817 22.839 26.936L21.7791 28.8876C21.6333 29.1576 21.4155 29.3835 21.149 29.541C20.8825 29.6985 20.5774 29.7816 20.2665 29.7814H20.0918C19.7933 29.781 19.5 29.7041 19.241 29.5581C18.982 29.4121 18.7662 29.2022 18.615 28.9491C18.4639 28.696 18.3825 28.4084 18.379 28.1149C18.3755 27.8214 18.45 27.5321 18.5952 27.2756L25.6815 14.7853C25.8281 14.528 26.0419 14.3138 26.3009 14.165C26.56 14.0162 26.8547 13.9382 27.1547 13.939C27.4547 13.9398 27.749 14.0194 28.0072 14.1695C28.2654 14.3197 28.4781 14.535 28.6232 14.7931V14.7931ZM29.2227 21.8852L28.0793 19.7034C27.9946 19.5224 27.8588 19.3692 27.6882 19.2618C27.5176 19.1544 27.3192 19.0973 27.1166 19.0973C26.914 19.0973 26.7157 19.1544 26.5451 19.2618C26.3744 19.3692 26.2387 19.5224 26.1539 19.7034L24.9947 21.9243C24.919 22.0639 24.8804 22.22 24.8824 22.3782C24.8844 22.5364 24.9269 22.6916 25.0061 22.8293C25.0852 22.9671 25.1984 23.083 25.3352 23.1663C25.472 23.2496 25.628 23.2977 25.7887 23.306H28.3771C28.5447 23.3019 28.7086 23.2558 28.853 23.172C28.9974 23.0882 29.1177 22.9695 29.2024 22.8272C29.2871 22.6849 29.3334 22.5236 29.337 22.3588C29.3405 22.1939 29.3012 22.0309 29.2227 21.8852Z" fill="white"/>
<path d="M40.2988 17.0998H38.3813C37.958 17.0999 37.5516 16.9361 37.25 16.644C36.9484 16.3518 36.7758 15.9548 36.7696 15.5385V15.5385C36.7685 15.3298 36.8094 15.1229 36.89 14.9297C36.9705 14.7365 37.089 14.5609 37.2388 14.4129C37.3886 14.265 37.5666 14.1475 37.7627 14.0674C37.9588 13.9873 38.169 13.946 38.3813 13.946H48.9096C49.3371 13.946 49.7471 14.113 50.0493 14.4102C50.3516 14.7074 50.5214 15.1105 50.5214 15.5307C50.5214 15.7387 50.4797 15.9445 50.3986 16.1366C50.3176 16.3286 50.1988 16.5031 50.0491 16.6499C49.8994 16.7968 49.7217 16.9131 49.5261 16.9923C49.3306 17.0715 49.1211 17.112 48.9096 17.1115H47.008C46.5805 17.1115 46.1706 17.2785 45.8683 17.5757C45.566 17.8729 45.3962 18.2759 45.3962 18.6962V28.2357C45.3967 28.4436 45.3555 28.6496 45.275 28.8418C45.1944 29.034 45.0761 29.2088 44.9267 29.356C44.7774 29.5032 44.5999 29.62 44.4046 29.6997C44.2093 29.7793 43.9999 29.8204 43.7884 29.8204H43.5145C43.0908 29.8152 42.6863 29.6459 42.389 29.3491C42.0916 29.0524 41.9254 28.6522 41.9265 28.2357V18.6845C41.9265 18.4751 41.8843 18.2677 41.8023 18.0745C41.7203 17.8812 41.6002 17.7058 41.4488 17.5584C41.2975 17.4111 41.1179 17.2947 40.9205 17.2159C40.7231 17.1372 40.5118 17.0978 40.2988 17.0998Z" fill="white"/>
<path d="M71.9511 15.3007C71.9495 15.1184 71.9846 14.9376 72.0542 14.7686C72.1238 14.5997 72.2267 14.4459 72.3568 14.3161C72.487 14.1863 72.642 14.083 72.8128 14.0121C72.9837 13.9413 73.1671 13.9043 73.3525 13.9033H79.3391C82.8089 13.9033 84.8335 15.3748 84.8335 18.0212C84.8335 19.5122 84.1983 20.4451 83.4838 20.9525C83.44 20.9818 83.4048 21.0218 83.3815 21.0685C83.3582 21.1152 83.3477 21.167 83.3509 21.219C83.3541 21.2709 83.3709 21.3211 83.3998 21.3647C83.4286 21.4083 83.4685 21.4438 83.5155 21.4677C84.508 21.9673 85.6553 23.029 85.6553 25.3709C85.6553 28.3178 83.7537 29.8011 80.1728 29.8011H73.3525C73.1671 29.8 72.9837 29.763 72.8128 29.6922C72.642 29.6214 72.487 29.5181 72.3568 29.3883C72.2267 29.2585 72.1238 29.1047 72.0542 28.9358C71.9846 28.7668 71.9495 28.586 71.9511 28.4037V15.3007ZM79.2756 20.1367C80.5897 20.1367 81.3837 19.5552 81.3837 18.4505C81.3837 17.3459 80.6294 16.7956 79.2399 16.7956H76.7349C75.9607 16.7956 75.3375 17.545 75.3375 18.4662C75.3375 19.3873 75.9607 20.1367 76.7349 20.1367H79.2756ZM80.0379 26.6746C81.4273 26.6746 82.2134 26.1477 82.2173 25.0196C82.2213 23.8916 81.4234 23.3413 80.0379 23.3413H76.719C76.364 23.3275 76.0178 23.4523 75.756 23.6885C75.4942 23.9247 75.3381 24.253 75.3216 24.602V25.4139C75.337 25.7632 75.4929 26.0922 75.7549 26.3285C76.0169 26.5649 76.3637 26.6894 76.719 26.6746H80.0379Z" fill="#039BFF"/>
<path d="M110.714 21.7407C110.714 17.1662 114.429 13.6025 119.281 13.6025C124.132 13.6025 127.848 17.1662 127.848 21.7407C127.848 26.3153 124.128 29.9023 119.281 29.9023C114.433 29.9023 110.714 26.3153 110.714 21.7407ZM124.346 21.7407C124.358 20.7509 124.07 19.7801 123.52 18.9514C122.969 18.1228 122.18 17.4738 121.253 17.087C120.327 16.7001 119.304 16.5929 118.315 16.7789C117.326 16.9648 116.416 17.4356 115.7 18.1314C114.984 18.8272 114.494 19.7165 114.294 20.6865C114.093 21.6565 114.19 22.6632 114.572 23.5788C114.955 24.4944 115.605 25.2776 116.442 25.8288C117.278 26.38 118.262 26.6743 119.269 26.6744C119.935 26.6918 120.597 26.5767 121.217 26.3362C121.836 26.0957 122.4 25.7346 122.874 25.2745C123.349 24.8145 123.723 24.2651 123.976 23.6592C124.229 23.0533 124.355 22.4034 124.346 21.7485V21.7407Z" fill="#039BFF"/>
<path d="M135.323 22.6894V27.9744C135.324 28.4302 135.141 28.8679 134.815 29.1913C134.488 29.5147 134.044 29.6975 133.58 29.6996C133.117 29.6975 132.673 29.5147 132.346 29.1913C132.019 28.8679 131.836 28.4302 131.838 27.9744V16.0735C131.836 15.7895 131.892 15.5081 132.002 15.2454C132.111 14.9827 132.273 14.7437 132.476 14.5422C132.68 14.3407 132.921 14.1805 133.188 14.0709C133.454 13.9613 133.74 13.9043 134.029 13.9033V13.9033C134.424 13.9039 134.811 14.0094 135.15 14.2087C135.489 14.4079 135.767 14.6935 135.954 15.0352L140.917 24.0126L146.01 14.965C146.188 14.6491 146.449 14.3856 146.765 14.2017C147.081 14.0178 147.441 13.9202 147.809 13.9189H147.852C148.135 13.9194 148.414 13.9747 148.675 14.0815C148.936 14.1882 149.173 14.3445 149.373 14.5413C149.572 14.7381 149.73 14.9716 149.838 15.2285C149.945 15.4854 150.001 15.7606 150 16.0384V27.9939C150.001 28.2194 149.956 28.4428 149.869 28.6514C149.781 28.86 149.653 29.0496 149.491 29.2094C149.329 29.3692 149.137 29.4962 148.925 29.583C148.714 29.6697 148.487 29.7147 148.257 29.7152V29.7152C148.027 29.7147 147.8 29.6696 147.588 29.5826C147.376 29.4956 147.184 29.3683 147.022 29.208C146.86 29.0478 146.732 28.8577 146.645 28.6487C146.558 28.4397 146.513 28.2158 146.514 27.99V22.7714C146.514 22.627 146.465 22.4867 146.376 22.3725C146.286 22.2584 146.16 22.1768 146.017 22.1406C145.875 22.1045 145.725 22.1157 145.59 22.1727C145.455 22.2296 145.343 22.329 145.272 22.4552L142.366 27.6465C142.227 27.8974 142.022 28.1069 141.772 28.2528C141.522 28.3988 141.237 28.4758 140.947 28.4758C140.656 28.4758 140.371 28.3988 140.121 28.2528C139.871 28.1069 139.666 27.8974 139.527 27.6465L136.566 22.3811C136.495 22.2554 136.384 22.1563 136.249 22.0992C136.115 22.0421 135.966 22.0302 135.824 22.0654C135.682 22.1006 135.556 22.1809 135.466 22.2937C135.375 22.4066 135.325 22.5457 135.323 22.6894V22.6894Z" fill="#039BFF"/>
<path d="M58.1873 11.8618C58.8823 11.8618 59.4458 11.3079 59.4458 10.6245C59.4458 9.94117 58.8823 9.38721 58.1873 9.38721C57.4923 9.38721 56.9288 9.94117 56.9288 10.6245C56.9288 11.3079 57.4923 11.8618 58.1873 11.8618Z" fill="#039BFF"/>
<path d="M98.2241 13.7041C93.3728 13.7041 89.657 17.2638 89.657 21.8384C89.657 26.4129 93.3728 30 98.2241 30C103.075 30 106.791 26.4168 106.791 21.8384C106.791 17.2599 103.063 13.7041 98.2241 13.7041ZM98.2241 26.6822C97.2364 26.6684 96.2748 26.3678 95.4604 25.8182C94.6459 25.2686 94.0149 24.4945 93.6467 23.5933C93.2784 22.6921 93.1893 21.7039 93.3906 20.7531C93.5919 19.8022 94.0747 18.9311 94.7781 18.2492C95.4815 17.5674 96.3743 17.1051 97.3441 16.9207C98.314 16.7363 99.3176 16.8378 100.229 17.2126C101.14 17.5874 101.919 18.2187 102.466 19.0272C103.013 19.8357 103.306 20.7852 103.306 21.7564C103.293 23.0691 102.752 24.3235 101.801 25.2451C100.851 26.1668 99.5672 26.6807 98.232 26.6744L98.2241 26.6822Z" fill="#039BFF"/>
<path d="M66.5083 29.7971C66.7638 29.7967 67.0147 29.731 67.2366 29.6065C67.4585 29.4819 67.6435 29.3028 67.7737 29.0867C67.9038 28.8705 67.9745 28.6248 67.9789 28.3737C67.9832 28.1225 67.9211 27.8746 67.7985 27.6542L66.3018 24.9844L61.6451 16.495L60.3747 14.2233C60.3034 14.1218 60.2069 14.0399 60.0943 13.9852C59.9818 13.9306 59.857 13.9051 59.7316 13.911C59.2711 13.911 58.5883 14.6214 57.1591 14.2077C56.4918 14.0167 55.8949 13.6403 55.4399 13.1237C54.985 12.6072 54.6914 11.9725 54.5945 11.2959C54.5172 10.7172 54.5878 10.1286 54.7999 9.58342C55.012 9.03823 55.3589 8.55361 55.8093 8.17333C56.0426 7.98596 56.2028 7.72506 56.2629 7.43484C56.3229 7.14462 56.2791 6.84292 56.1388 6.58083L56.1031 6.51447C56.0049 6.33338 55.8666 6.17635 55.6982 6.05504C55.5299 5.93374 55.3359 5.85127 55.1307 5.81378C54.9256 5.77628 54.7144 5.78471 54.513 5.83844C54.3116 5.89217 54.125 5.98983 53.9673 6.12415C53.0014 6.96158 52.3173 8.06786 52.0056 9.29631C51.6939 10.5248 51.7693 11.8173 52.2218 13.0027C52.6743 14.188 53.4826 15.2102 54.5395 15.9335C55.5964 16.6569 56.8519 17.0474 58.1397 17.0531H58.2151L58.1952 17.0765L61.9627 23.9423L62.7369 25.3474C62.811 25.4815 62.8482 25.6324 62.8447 25.785C62.8412 25.9376 62.7971 26.0866 62.7168 26.2173C62.6365 26.348 62.5228 26.4557 62.387 26.5297C62.2512 26.6038 62.0981 26.6416 61.9429 26.6394H57.4846C57.3293 26.6408 57.1762 26.6023 57.0406 26.5278C56.9049 26.4532 56.7914 26.3452 56.7113 26.2144C56.6311 26.0835 56.587 25.9344 56.5834 25.7816C56.5798 25.6289 56.6167 25.4779 56.6906 25.3435L57.9332 23.1031C58.0632 22.8669 58.1312 22.6026 58.1312 22.3341C58.1312 22.0656 58.0632 21.8014 57.9332 21.5652V21.5652C57.7944 21.3089 57.5879 21.0941 57.3354 20.9434C57.0829 20.7928 56.7938 20.7118 56.4984 20.709C56.2031 20.7062 55.9124 20.7817 55.657 20.9275C55.4016 21.0734 55.1909 21.2843 55.0471 21.5379L51.6806 27.4551C51.5404 27.6938 51.467 27.9647 51.4678 28.2403C51.4686 28.5159 51.5435 28.7864 51.6851 29.0242C51.8266 29.2621 52.0297 29.4589 52.2736 29.5947C52.5176 29.7304 52.7937 29.8002 53.074 29.7971V29.8166H66.5083V29.7971V29.7971Z" fill="white"/>
<path d="M64.174 8.14995C65.5728 8.14995 66.7068 7.04552 66.7068 5.68313C66.7068 4.32074 65.5728 3.21631 64.174 3.21631C62.7752 3.21631 61.6412 4.32074 61.6412 5.68313C61.6412 7.04552 62.7752 8.14995 64.174 8.14995Z" fill="#039BFF"/>
<path d="M74.865 7.39266C76.9677 7.39266 78.6722 5.73776 78.6722 3.69633C78.6722 1.6549 76.9677 0 74.865 0C72.7624 0 71.0579 1.6549 71.0579 3.69633C71.0579 5.73776 72.7624 7.39266 74.865 7.39266Z" fill="#039BFF"/>
<path d="M87.6601 13.7626C90.4666 13.7626 92.7416 11.5572 92.7416 8.83673C92.7416 6.11626 90.4666 3.91089 87.6601 3.91089C84.8537 3.91089 82.5786 6.11626 82.5786 8.83673C82.5786 11.5572 84.8537 13.7626 87.6601 13.7626Z" fill="#039BFF"/>
</g>
<defs>
<clipPath id="clip0_396_5433">
<rect width="150" height="30" fill="white"/>
</clipPath>
</defs>
</svg>
